<svg width="24" height="25" viewBox="0 0 24 25" fill="none" xmlns="http://www.w3.org/2000/svg">
<path d="M12.6144 21.8413H3.99346C3.44463 21.8413 3 21.3964 3 20.8478V4.83476C3 4.286 3.4447 3.84131 3.99346 3.84131H20.0066C20.5552 3.84131 21 4.286 21 4.83476V20.8478C21 21.3965 20.5552 21.8413 20.0066 21.8413H15.4197V14.8707H17.7594L18.1098 12.1542H15.4197V10.4198C15.4197 9.63329 15.6381 9.09731 16.766 9.09731L18.2045 9.09668V6.66697C17.9557 6.63386 17.1018 6.5599 16.1083 6.5599C14.0343 6.5599 12.6144 7.82588 12.6144 10.1508V12.1542H10.2687V14.8707H12.6144V21.8413Z" fill="#82BEA2"/>
</svg>
