<svg width="24" height="25" viewBox="0 0 24 25" fill="none" xmlns="http://www.w3.org/2000/svg">
<path fill-rule="evenodd" clip-rule="evenodd" d="M12 3.84131C9.55575 3.84131 9.24926 3.85167 8.28931 3.89547C7.33137 3.93916 6.67712 4.09132 6.10466 4.31381C5.51283 4.54378 5.01092 4.85152 4.51055 5.35186C4.01021 5.85223 3.70247 6.35414 3.47251 6.94597C3.25001 7.51843 3.09785 8.17268 3.05416 9.13062C3.01036 10.0906 3 10.3971 3 12.8413C3 15.2856 3.01036 15.5921 3.05416 16.552C3.09785 17.5099 3.25001 18.1642 3.47251 18.7367C3.70247 19.3285 4.01021 19.8304 4.51055 20.3308C5.01092 20.8311 5.51283 21.1388 6.10466 21.3688C6.67712 21.5913 7.33137 21.7435 8.28931 21.7871C9.24926 21.8309 9.55575 21.8413 12 21.8413C14.4443 21.8413 14.7507 21.8309 15.7107 21.7871C16.6686 21.7435 17.3229 21.5913 17.8953 21.3688C18.4872 21.1388 18.9891 20.8311 19.4895 20.3308C19.9898 19.8304 20.2975 19.3285 20.5275 18.7367C20.75 18.1642 20.9021 17.5099 20.9458 16.552C20.9896 15.5921 21 15.2856 21 12.8413C21 10.3971 20.9896 10.0906 20.9458 9.13062C20.9021 8.17268 20.75 7.51843 20.5275 6.94597C20.2975 6.35414 19.9898 5.85223 19.4895 5.35186C18.9891 4.85152 18.4872 4.54378 17.8953 4.31381C17.3229 4.09132 16.6686 3.93916 15.7107 3.89547C14.7507 3.85167 14.4443 3.84131 12 3.84131ZM12 5.46293C14.4031 5.46293 14.6878 5.47211 15.6368 5.51541C16.5143 5.55542 16.9908 5.70204 17.3079 5.82529C17.728 5.98856 18.0278 6.18358 18.3428 6.49854C18.6577 6.81346 18.8528 7.11327 19.016 7.53337C19.1393 7.8505 19.2859 8.32704 19.3259 9.20454C19.3692 10.1536 19.3784 10.4382 19.3784 12.8413C19.3784 15.2444 19.3692 15.5291 19.3259 16.4781C19.2859 17.3556 19.1393 17.8321 19.016 18.1493C18.8528 18.5693 18.6577 18.8692 18.3428 19.1841C18.0278 19.499 17.728 19.6941 17.3079 19.8573C16.9908 19.9806 16.5143 20.1272 15.6368 20.1672C14.6879 20.2105 14.4033 20.2197 12 20.2197C9.59672 20.2197 9.31213 20.2105 8.36323 20.1672C7.48574 20.1272 7.00919 19.9806 6.69206 19.8573C6.27196 19.6941 5.97215 19.499 5.65723 19.1841C5.34231 18.8692 5.14725 18.5693 4.98398 18.1493C4.86073 17.8321 4.71411 17.3556 4.6741 16.4781C4.6308 15.5291 4.62162 15.2444 4.62162 12.8413C4.62162 10.4382 4.6308 10.1536 4.6741 9.20454C4.71411 8.32704 4.86073 7.8505 4.98398 7.53337C5.14725 7.11327 5.34227 6.81346 5.65723 6.49854C5.97215 6.18358 6.27196 5.98856 6.69206 5.82529C7.00919 5.70204 7.48574 5.55542 8.36323 5.51541C9.31224 5.47211 9.5969 5.46293 12 5.46293ZM7.37838 12.8413C7.37838 10.2888 9.44753 8.21969 12 8.21969C14.5525 8.21969 16.6216 10.2888 16.6216 12.8413C16.6216 15.3938 14.5525 17.4629 12 17.4629C9.44753 17.4629 7.37838 15.3938 7.37838 12.8413ZM12 15.8413C10.3431 15.8413 9 14.4982 9 12.8413C9 11.1844 10.3431 9.84131 12 9.84131C13.6569 9.84131 15 11.1844 15 12.8413C15 14.4982 13.6569 15.8413 12 15.8413ZM16.8042 9.11708C17.4007 9.11708 17.8842 8.63357 17.8842 8.0371C17.8842 7.44062 17.4007 6.95708 16.8042 6.95708C16.2078 6.95708 15.7242 7.44062 15.7242 8.0371C15.7242 8.63357 16.2078 9.11708 16.8042 9.11708Z" fill="#82BEA2"/>
</svg>
