<svg width="24" height="25" viewBox="0 0 24 25" fill="none" xmlns="http://www.w3.org/2000/svg">
<path fill-rule="evenodd" clip-rule="evenodd" d="M5.11877 8.61258H5.09337C3.82338 8.61258 3 7.78169 3 6.72848C3 5.65478 3.84772 4.84131 5.14311 4.84131C6.43744 4.84131 7.2333 5.65273 7.2587 6.72541C7.2587 7.77862 6.43744 8.61258 5.11877 8.61258ZM21 20.8413H17.0218V15.2167C17.0218 13.7444 16.3995 12.7394 15.031 12.7394C13.9844 12.7394 13.4023 13.4176 13.1313 14.0712C13.0419 14.2778 13.0435 14.5559 13.0452 14.8425V14.8425C13.0454 14.8814 13.0456 14.9205 13.0456 14.9595V20.8413H9.10442C9.10442 20.8413 9.15522 10.8778 9.10442 9.97213H13.0456V11.678C13.2785 10.9321 14.5379 9.86763 16.5476 9.86763C19.041 9.86763 21 11.4311 21 14.7976V20.8413ZM6.96237 9.97213H3.45402V20.8413H6.96237V9.97213Z" fill="#82BEA2"/>
</svg>
