<svg width="24" height="25" viewBox="0 0 24 25" fill="none" xmlns="http://www.w3.org/2000/svg">
<path fill-rule="evenodd" clip-rule="evenodd" d="M19.23 16.1011L16.69 15.8111C16.08 15.7411 15.48 15.9511 15.05 16.3811L13.21 18.2211C10.38 16.7811 8.06001 14.4711 6.62001 11.6311L8.47001 9.78107C8.90001 9.35107 9.11001 8.75107 9.04001 8.14107L8.75001 5.62107C8.63001 4.61107 7.78001 3.85107 6.76001 3.85107H5.03001C3.90001 3.85107 2.96001 4.79107 3.03001 5.92107C3.56001 14.4611 10.39 21.2811 18.92 21.8111C20.05 21.8811 20.99 20.9411 20.99 19.8111V18.0811C21 17.0711 20.24 16.2211 19.23 16.1011Z" fill="#82BEA2"/>
</svg>
