<svg width="24" height="25" viewBox="0 0 24 25" fill="none" xmlns="http://www.w3.org/2000/svg">
<path fill-rule="evenodd" clip-rule="evenodd" d="M5 9.84131C5 5.97131 8.13 2.84131 12 2.84131C15.87 2.84131 19 5.97131 19 9.84131C19 14.0113 14.58 19.7613 12.77 21.9513C12.37 22.4313 11.64 22.4313 11.24 21.9513C9.42 19.7613 5 14.0113 5 9.84131ZM9.5 9.84131C9.5 11.2213 10.62 12.3413 12 12.3413C13.38 12.3413 14.5 11.2213 14.5 9.84131C14.5 8.46131 13.38 7.34131 12 7.34131C10.62 7.34131 9.5 8.46131 9.5 9.84131Z" fill="#82BEA2"/>
</svg>
