<svg width="24" height="25" viewBox="0 0 24 25" fill="none" xmlns="http://www.w3.org/2000/svg">
<path fill-rule="evenodd" clip-rule="evenodd" d="M20.1045 7.8111C20.6439 8.37194 20.82 9.64555 20.82 9.64555C20.82 9.64555 21 11.1415 21 12.6369V14.0393C21 15.5353 20.82 17.0307 20.82 17.0307C20.82 17.0307 20.6439 18.3043 20.1045 18.8652C19.4878 19.5286 18.8039 19.5972 18.4174 19.6359C18.3749 19.6402 18.336 19.6441 18.3011 19.6484C15.7822 19.8355 12 19.8413 12 19.8413C12 19.8413 7.32 19.7974 5.88 19.6553C5.81177 19.6422 5.72907 19.632 5.63541 19.6205C5.17928 19.5643 4.46335 19.4762 3.89494 18.8652C3.3555 18.3043 3.18 17.0307 3.18 17.0307C3.18 17.0307 3 15.5353 3 14.0393V12.6369C3 11.1415 3.18 9.64555 3.18 9.64555C3.18 9.64555 3.3555 8.37194 3.89494 7.8111C4.51305 7.14669 5.19754 7.07888 5.58411 7.04059C5.62602 7.03644 5.66443 7.03263 5.69887 7.02845C8.21775 6.84131 11.9961 6.84131 11.9961 6.84131H12.0039C12.0039 6.84131 15.7822 6.84131 18.3011 7.02845C18.3356 7.03264 18.374 7.03645 18.4159 7.04061C18.8022 7.07891 19.487 7.1468 20.1045 7.8111ZM10.1409 10.5454L10.1415 15.7386L15.0043 13.151L10.1409 10.5454Z" fill="#82BEA2"/>
</svg>
