<svg width="24" height="24" viewBox="0 0 24 24" fill="none" xmlns="http://www.w3.org/2000/svg">
<path d="M21.4885 15.4688C21.5631 15.5984 21.5831 15.7523 21.5443 15.8966C21.5054 16.0409 21.4108 16.1639 21.2813 16.2385C21.1517 16.3131 20.9979 16.3332 20.8535 16.2943C20.7092 16.2555 20.5862 16.1609 20.5116 16.0313L18.6366 12.7426C17.5278 13.5199 16.2899 14.0941 14.9803 14.4385L15.5588 17.9073C15.571 17.9802 15.5687 18.0547 15.5521 18.1268C15.5355 18.1988 15.5048 18.2668 15.4619 18.327C15.419 18.3871 15.3646 18.4382 15.302 18.4774C15.2393 18.5165 15.1695 18.5429 15.0966 18.5551C15.0656 18.5598 15.0342 18.5623 15.0028 18.5626C14.87 18.5625 14.7415 18.5153 14.6401 18.4295C14.5387 18.3437 14.4709 18.2248 14.4488 18.0938L13.875 14.6663C12.6326 14.8615 11.3674 14.8615 10.125 14.6663L9.55503 18.0938C9.53286 18.225 9.46495 18.344 9.36335 18.4298C9.26174 18.5156 9.13302 18.5627 9.00003 18.5626C8.96864 18.5623 8.93731 18.5598 8.90628 18.5551C8.83337 18.5428 8.7636 18.5163 8.70095 18.4771C8.6383 18.4378 8.58401 18.3866 8.54117 18.3263C8.49833 18.2661 8.46779 18.198 8.45129 18.1259C8.43479 18.0538 8.43267 17.9792 8.44503 17.9063L9.02346 14.4376C7.71393 14.0932 6.47597 13.5189 5.36721 12.7417L3.48846 16.0313C3.41387 16.1609 3.29088 16.2555 3.14653 16.2943C3.00219 16.3332 2.84832 16.3131 2.71878 16.2385C2.58924 16.1639 2.49463 16.0409 2.45578 15.8966C2.41692 15.7523 2.437 15.5984 2.51159 15.4688L4.46628 12.0488C3.77088 11.4621 3.13328 10.81 2.56221 10.1017C2.46848 9.98554 2.42471 9.83695 2.44053 9.68856C2.45635 9.54017 2.53047 9.40414 2.64659 9.31041C2.7627 9.21667 2.9113 9.1729 3.05969 9.18872C3.20808 9.20454 3.3441 9.27867 3.43784 9.39478C5.0194 11.3542 7.78784 13.6876 12 13.6876C16.2122 13.6876 18.9807 11.3542 20.5622 9.39666C20.656 9.28054 20.792 9.20642 20.9404 9.1906C21.0888 9.17477 21.2373 9.21854 21.3535 9.31228C21.4696 9.40602 21.5437 9.54204 21.5595 9.69043C21.5753 9.83882 21.5316 9.98742 21.4378 10.1035C20.8668 10.8119 20.2292 11.4639 19.5338 12.0507L21.4885 15.4688Z" fill="#222222"/>
</svg>
