<svg xmlns="http://www.w3.org/2000/svg" width="32" height="33" viewBox="0 0 32 33" fill="none">
  <path d="M5.125 6.89062H7.375C7.83333 6.89062 8.23958 7.03125 8.59375 7.3125C8.94792 7.59375 9.17708 7.95312 9.28125 8.39062L11.9062 18.9219H23.4062L25.3125 11.8906H11.6562L11.1562 9.89062H27.9062L25.3125 19.4219C25.1875 19.8594 24.9531 20.2135 24.6094 20.4844C24.2656 20.7552 23.8646 20.8906 23.4062 20.8906H11.9062C11.4688 20.8906 11.0677 20.75 10.7031 20.4688C10.3385 20.1875 10.1042 19.8281 10 19.3906L7.375 8.89062H5.125C4.85417 8.89062 4.61979 8.79167 4.42188 8.59375C4.22396 8.39583 4.125 8.16146 4.125 7.89062C4.125 7.61979 4.22396 7.38542 4.42188 7.1875C4.61979 6.98958 4.85417 6.89062 5.125 6.89062ZM22.1562 20.8906C22.9896 20.8906 23.6979 21.1875 24.2812 21.7812C24.8646 22.375 25.1562 23.0781 25.1562 23.8906C25.1562 24.724 24.8646 25.4375 24.2812 26.0312C23.6979 26.625 22.9896 26.9219 22.1562 26.9219C21.3438 26.9219 20.6406 26.625 20.0469 26.0312C19.4531 25.4375 19.1562 24.724 19.1562 23.8906C19.1562 23.0781 19.4479 22.375 20.0312 21.7812C20.6146 21.1875 21.3229 20.8906 22.1562 20.8906ZM13.125 20.8906C13.9583 20.8906 14.6719 21.1875 15.2656 21.7812C15.8594 22.375 16.1562 23.0781 16.1562 23.8906C16.1562 24.724 15.8594 25.4375 15.2656 26.0312C14.6719 26.625 13.9583 26.9219 13.125 26.9219C12.2917 26.9219 11.5885 26.625 11.0156 26.0312C10.4427 25.4375 10.1562 24.724 10.1562 23.8906C10.1562 23.0781 10.4479 22.375 11.0312 21.7812C11.6146 21.1875 12.3125 20.8906 13.125 20.8906ZM13.125 22.9219C12.8542 22.9219 12.6198 23.0156 12.4219 23.2031C12.224 23.3906 12.125 23.6198 12.125 23.8906C12.125 24.1823 12.224 24.4219 12.4219 24.6094C12.6198 24.7969 12.8542 24.8906 13.125 24.8906C13.3958 24.8906 13.6354 24.7969 13.8438 24.6094C14.0521 24.4219 14.1562 24.1823 14.1562 23.8906C14.1562 23.6198 14.0573 23.3906 13.8594 23.2031C13.6615 23.0156 13.4167 22.9219 13.125 22.9219ZM22.1562 22.9219C21.8646 22.9219 21.625 23.0156 21.4375 23.2031C21.25 23.3906 21.1562 23.6198 21.1562 23.8906C21.1562 24.1823 21.25 24.4219 21.4375 24.6094C21.625 24.7969 21.8646 24.8906 22.1562 24.8906C22.4479 24.8906 22.6875 24.7969 22.875 24.6094C23.0625 24.4219 23.1562 24.1823 23.1562 23.8906C23.1562 23.6198 23.0573 23.3906 22.8594 23.2031C22.6615 23.0156 22.4271 22.9219 22.1562 22.9219Z" fill="#525252"/>
</svg>