<svg xmlns="http://www.w3.org/2000/svg" width="77" height="14" viewBox="0 0 77 14" fill="none">
  <path d="M13.9651 5.91148L10.6396 8.90855L11.5565 13.3015L7.68358 11.0571L3.79697 13.3015L4.72757 8.90855L1.38837 5.91148L5.84975 5.44619L7.68358 1.3543L9.50371 5.44619L13.9651 5.91148Z" fill="#F0C200"/>
  <path d="M29.3801 5.91148L26.0546 8.90855L26.9715 13.3015L23.0986 11.0571L19.212 13.3015L20.1426 8.90855L16.8034 5.91148L21.2648 5.44619L23.0986 1.3543L24.9188 5.44619L29.3801 5.91148Z" fill="#F0C200"/>
  <path d="M44.7952 5.91148L41.4697 8.90855L42.3866 13.3015L38.5137 11.0571L34.6271 13.3015L35.5577 8.90855L32.2185 5.91148L36.6799 5.44619L38.5137 1.3543L40.3339 5.44619L44.7952 5.91148Z" fill="#F0C200"/>
  <path d="M60.2103 5.91148L56.8848 8.90855L57.8017 13.3015L53.9288 11.0571L50.0421 13.3015L50.9727 8.90855L47.6335 5.91148L52.0949 5.44619L53.9288 1.3543L55.7489 5.44619L60.2103 5.91148Z" fill="#F0C200"/>
  <path d="M75.6253 5.91148L72.2998 8.90855L73.2167 13.3015L69.3438 11.0571L65.4572 13.3015L66.3878 8.90855L63.0486 5.91148L67.51 5.44619L69.3438 1.3543L71.1639 5.44619L75.6253 5.91148Z" fill="#F0C200"/>
</svg>