<svg xmlns="http://www.w3.org/2000/svg" width="45" height="45" viewBox="0 0 45 45" fill="none">
  <path d="M21.1377 4.76807H22.5V7.58057H21.1377V4.76807ZM18.0615 5.3833L18.8525 8.06396L17.7979 8.37158L17.71 8.41553L16.6992 8.81104L16.6113 8.85498H16.5674L15.4248 6.26221L15.5566 6.21826L15.6006 6.17432H15.6445L16.7871 5.73486H16.8311L16.875 5.69092L18.0615 5.3833ZM28.1689 6.17432H39.4189V8.98682H34.2773C35.2734 9.83643 36.1816 10.7739 37.002 11.7993C37.793 12.8247 38.4741 13.938 39.0454 15.1392C39.6167 16.3403 40.0488 17.6001 40.3418 18.9185C40.6641 20.2661 40.8252 21.6577 40.8252 23.0933C40.8252 25.5835 40.3418 27.9419 39.375 30.1685C38.4082 32.395 37.0972 34.3359 35.4419 35.9912C33.7866 37.6465 31.8457 38.9575 29.6191 39.9243C27.3926 40.8911 25.0342 41.3745 22.5439 41.3745C20.0244 41.3745 17.6514 40.8911 15.4248 39.9243C13.1982 38.9575 11.2573 37.6465 9.60205 35.9912C7.94678 34.3359 6.63574 32.395 5.66895 30.1685C4.70215 27.9419 4.21875 25.5835 4.21875 23.0933V21.687H7.03125V23.0933C7.03125 25.2026 7.44141 27.1948 8.26172 29.0698C9.08203 30.9741 10.1953 32.6221 11.6016 34.0137C13.0078 35.4053 14.6484 36.5112 16.5234 37.3315C18.3984 38.1519 20.4053 38.562 22.5439 38.562C24.6533 38.562 26.6455 38.1519 28.5205 37.3315C30.3955 36.5112 32.0361 35.4053 33.4424 34.0137C34.8486 32.6221 35.9619 30.9741 36.7822 29.0698C37.6025 27.1948 38.0127 25.2026 38.0127 23.0933C38.0127 21.687 37.8516 20.354 37.5293 19.0942C37.1777 17.8345 36.6943 16.6553 36.0791 15.5566C35.4639 14.458 34.7314 13.4546 33.8818 12.5464C33.0029 11.6089 32.0361 10.7886 30.9814 10.0854V17.4243H28.1689V6.17432ZM12.876 7.58057L14.3701 9.95361L13.7549 10.3931L13.667 10.481L12.832 11.0522L12.7441 11.0962L12.4365 11.3599L10.5908 9.25049L10.9863 8.89893H11.0742L12.085 8.10791H12.1289L12.1729 8.06396L12.876 7.58057ZM8.56934 11.228L10.7227 13.0737L10.415 13.4253V13.4692L9.75586 14.3481L9.66797 14.436L9.27246 15.0513L6.89941 13.5132L7.38281 12.7661L7.42676 12.7222V12.6782L8.21777 11.7114L8.30566 11.6235L8.56934 11.228ZM5.58105 16.062L8.17383 17.2046V17.2485L8.08594 17.3364L7.73438 18.3032L7.69043 18.3911L7.38281 19.5337L4.74609 18.7427L5.00977 17.5562L5.05371 17.4683V17.4243L5.49316 16.3257V16.2817L5.53711 16.2378L5.58105 16.062Z" fill="#333333"/>
</svg>