<svg xmlns="http://www.w3.org/2000/svg" width="45" height="45" viewBox="0 0 45 45" fill="none">
  <path d="M22.5439 4.06494C23.8916 4.06494 25.166 4.32861 26.3672 4.85596C27.5684 5.354 28.6157 6.0498 29.5093 6.94336C30.4028 7.83691 31.1133 8.88428 31.6406 10.0854C32.1387 11.2573 32.3877 12.5171 32.3877 13.8647V17.9517C33.6768 19.2114 34.7021 20.7056 35.4639 22.4341C36.2256 24.1626 36.6064 26.0083 36.6064 27.9712C36.6064 29.9048 36.2402 31.7358 35.5078 33.4644C34.7461 35.1636 33.7354 36.6504 32.4756 37.9248C31.2158 39.1992 29.7217 40.2173 27.9932 40.979C26.2939 41.7114 24.4775 42.0776 22.5439 42.0776C20.6104 42.0776 18.7939 41.7114 17.0947 40.979C15.3662 40.2173 13.8647 39.1992 12.5903 37.9248C11.3159 36.6504 10.3125 35.1636 9.58008 33.4644C8.81836 31.7358 8.4375 29.9048 8.4375 27.9712C8.4375 26.0083 8.81836 24.1626 9.58008 22.4341C10.3418 20.7056 11.3818 19.2114 12.7002 17.9517V13.8647C12.7002 12.5171 12.9492 11.2573 13.4473 10.0854C13.9746 8.88428 14.6851 7.83691 15.5786 6.94336C16.4722 6.0498 17.5195 5.354 18.7207 4.85596C19.9219 4.32861 21.1963 4.06494 22.5439 4.06494ZM22.5439 6.87744C20.6104 6.87744 18.9551 7.55859 17.5781 8.9209C16.2012 10.2832 15.5127 11.9312 15.5127 13.8647V15.7983C16.5381 15.2124 17.644 14.7437 18.8306 14.3921C20.0171 14.0405 21.2549 13.8647 22.5439 13.8647C23.833 13.8647 25.0708 14.0405 26.2573 14.3921C27.4438 14.7437 28.5498 15.2124 29.5752 15.7983V13.8647C29.5752 11.9312 28.8867 10.2832 27.5098 8.9209C26.1328 7.55859 24.4775 6.87744 22.5439 6.87744ZM22.5439 16.7212C20.9912 16.7212 19.5264 17.0142 18.1494 17.6001C16.7725 18.186 15.5786 18.9917 14.5679 20.0171C13.5571 21.0425 12.7588 22.2437 12.1729 23.6206C11.5869 24.9683 11.2939 26.4185 11.2939 27.9712C11.2939 29.5239 11.5869 30.9888 12.1729 32.3657C12.7588 33.7427 13.5571 34.9365 14.5679 35.9473C15.5786 36.958 16.7725 37.7563 18.1494 38.3423C19.5264 38.9282 20.9912 39.2212 22.5439 39.2212C24.0967 39.2212 25.5615 38.9282 26.9385 38.3423C28.3154 37.7563 29.5093 36.958 30.52 35.9473C31.5308 34.9365 32.3291 33.7427 32.915 32.3657C33.501 30.9888 33.7939 29.5239 33.7939 27.9712C33.7939 26.4185 33.501 24.9683 32.915 23.6206C32.3291 22.2437 31.5234 21.0425 30.498 20.0171C29.4727 18.9917 28.2861 18.186 26.9385 17.6001C25.5615 17.0142 24.0967 16.7212 22.5439 16.7212ZM22.5439 25.1587C23.3057 25.1587 23.9648 25.4297 24.5215 25.9717C25.0781 26.5137 25.3564 27.1802 25.3564 27.9712C25.3564 28.4985 25.2246 28.9746 24.9609 29.3994C24.6973 29.8242 24.3604 30.1685 23.9502 30.4321V35.0024H21.1377V30.4321C20.7275 30.1685 20.3833 29.8242 20.105 29.3994C19.8267 28.9746 19.6875 28.4985 19.6875 27.9712C19.6875 27.1802 19.9658 26.5137 20.5225 25.9717C21.0791 25.4297 21.7529 25.1587 22.5439 25.1587Z" fill="#333333"/>
</svg>