<svg xmlns="http://www.w3.org/2000/svg" width="45" height="45" viewBox="0 0 45 45" fill="none">
  <path d="M1.40625 6.17432H26.7627V11.7993H34.3213L34.7607 12.1948L43.2422 20.6323L43.6377 21.0718V35.7495H39.1992C38.877 36.9507 38.2178 37.9541 37.2217 38.7598C36.2256 39.5654 35.083 39.9683 33.7939 39.9683C32.4756 39.9683 31.3257 39.5654 30.3442 38.7598C29.3628 37.9541 28.7109 36.9507 28.3887 35.7495H16.6553C16.333 36.9507 15.6812 37.9541 14.6997 38.7598C13.7183 39.5654 12.5684 39.9683 11.25 39.9683C9.96094 39.9683 8.81836 39.5654 7.82227 38.7598C6.82617 37.9541 6.16699 36.9507 5.84473 35.7495H1.40625V6.17432ZM4.21875 8.98682V32.937H5.84473C6.16699 31.7065 6.82617 30.6958 7.82227 29.9048C8.81836 29.1138 9.96094 28.7183 11.25 28.7183C12.5684 28.7183 13.7183 29.1138 14.6997 29.9048C15.6812 30.6958 16.333 31.7065 16.6553 32.937H23.9062V8.98682H4.21875ZM26.7627 14.6118V32.937H28.3887C28.7109 31.7065 29.3628 30.6958 30.3442 29.9048C31.3257 29.1138 32.4756 28.7183 33.7939 28.7183C35.083 28.7183 36.2256 29.1138 37.2217 29.9048C38.2178 30.6958 38.877 31.7065 39.1992 32.937H40.8252V22.2583L33.1348 14.6118H26.7627ZM11.25 31.4868C10.459 31.4868 9.79248 31.7651 9.25049 32.3218C8.7085 32.8784 8.4375 33.5522 8.4375 34.3433C8.4375 35.1343 8.7085 35.7935 9.25049 36.3208C9.79248 36.8481 10.459 37.1118 11.25 37.1118C12.041 37.1118 12.7075 36.8481 13.2495 36.3208C13.7915 35.7935 14.0625 35.1343 14.0625 34.3433C14.0625 33.5522 13.7915 32.8784 13.2495 32.3218C12.7075 31.7651 12.041 31.4868 11.25 31.4868ZM33.7939 31.4868C33.0029 31.4868 32.3291 31.7651 31.7725 32.3218C31.2158 32.8784 30.9375 33.5522 30.9375 34.3433C30.9375 35.1343 31.2158 35.7935 31.7725 36.3208C32.3291 36.8481 33.0029 37.1118 33.7939 37.1118C34.585 37.1118 35.2441 36.8481 35.7715 36.3208C36.2988 35.7935 36.5625 35.1343 36.5625 34.3433C36.5625 33.5522 36.2988 32.8784 35.7715 32.3218C35.2441 31.7651 34.585 31.4868 33.7939 31.4868Z" fill="#333333"/>
</svg>