<svg xmlns="http://www.w3.org/2000/svg" width="24" height="25" viewBox="0 0 24 25" fill="none">
  <path d="M2 17.6001V7.6001C2 7.06966 2.21071 6.56096 2.58579 6.18588C2.96086 5.81081 3.46957 5.6001 4 5.6001H20C20.5304 5.6001 21.0391 5.81081 21.4142 6.18588C21.7893 6.56096 22 7.06966 22 7.6001V17.6001C22 18.1305 21.7893 18.6392 21.4142 19.0143C21.0391 19.3894 20.5304 19.6001 20 19.6001H4C3.46957 19.6001 2.96086 19.3894 2.58579 19.0143C2.21071 18.6392 2 18.1305 2 17.6001Z" stroke="#82BEA2" stroke-width="1.5" stroke-linecap="round" stroke-linejoin="round"/>
  <path d="M18.5 12.6101L18.51 12.5991M5.5 12.6101L5.51 12.5991M12 15.6001C11.2044 15.6001 10.4413 15.284 9.87868 14.7214C9.31607 14.1588 9 13.3957 9 12.6001C9 11.8044 9.31607 11.0414 9.87868 10.4788C10.4413 9.91617 11.2044 9.6001 12 9.6001C12.7956 9.6001 13.5587 9.91617 14.1213 10.4788C14.6839 11.0414 15 11.8044 15 12.6001C15 13.3957 14.6839 14.1588 14.1213 14.7214C13.5587 15.284 12.7956 15.6001 12 15.6001Z" stroke="#82BEA2" stroke-width="1.5" stroke-linecap="round" stroke-linejoin="round"/>
</svg>