<svg xmlns="http://www.w3.org/2000/svg" width="24" height="25" viewBox="0 0 24 25" fill="none">
  <path d="M11.115 17.079C10.8738 17.0816 10.641 16.9906 10.4658 16.8253C10.2906 16.66 10.1867 16.4333 10.176 16.193C10.174 16.151 10.17 16.038 10.073 16.038C10.033 16.038 9.999 16.061 9.96 16.097C9.848 16.2 9.706 16.303 9.5 16.303C9.39502 16.3008 9.29146 16.2784 9.195 16.237C8.66 16.023 8.653 15.659 8.674 15.512C8.68 15.474 8.681 15.432 8.654 15.402L8.622 15.372H8.588C8.561 15.372 8.533 15.384 8.495 15.411C8.36411 15.5103 8.20536 15.5663 8.041 15.571C7.95429 15.5702 7.8685 15.5532 7.788 15.521C7.08 15.251 7.138 14.593 7.171 14.395C7.17633 14.3537 7.16633 14.323 7.141 14.303L7.091 14.263L7.044 14.306C6.90833 14.4363 6.72733 14.5091 6.539 14.509C6.34557 14.5096 6.15983 14.4335 6.02258 14.2976C5.88533 14.1616 5.8078 13.9769 5.807 13.784C5.807 13.384 6.135 13.062 6.539 13.062C6.903 13.062 7.214 13.332 7.26 13.692L7.286 13.887L7.396 13.722C7.406 13.704 7.703 13.262 8.248 13.262C8.35 13.262 8.458 13.278 8.564 13.312C8.998 13.442 9.072 13.832 9.083 13.992C9.091 14.086 9.158 14.092 9.173 14.092C9.21 14.092 9.237 14.068 9.256 14.047C9.32615 13.9752 9.41016 13.9182 9.50295 13.8795C9.59575 13.8409 9.69543 13.8213 9.796 13.822C9.92467 13.822 10.0587 13.852 10.198 13.912C10.888 14.205 10.577 15.07 10.572 15.079C10.514 15.223 10.511 15.286 10.567 15.323L10.594 15.336H10.614C10.644 15.336 10.684 15.322 10.748 15.301C10.841 15.269 10.983 15.221 11.115 15.221C11.3626 15.2221 11.5999 15.3201 11.7757 15.4941C11.9515 15.6681 12.0518 15.904 12.055 16.151C12.0534 16.3984 11.9535 16.635 11.7773 16.809C11.6011 16.983 11.3629 17.0801 11.115 17.079ZM18.417 12.908C17.279 11.928 14.649 9.66804 13.936 9.13804C13.53 8.83604 13.251 8.67604 13.008 8.60504C12.8603 8.5593 12.7066 8.5357 12.552 8.53504C12.3693 8.53504 12.176 8.56671 11.972 8.63004C11.512 8.77504 11.054 9.13504 10.61 9.48404L10.587 9.50204C10.173 9.82604 9.747 10.162 9.423 10.232C9.28189 10.2639 9.1377 10.2804 8.993 10.281C8.631 10.281 8.306 10.177 8.183 10.023C8.163 9.99838 8.17633 9.95671 8.223 9.89804L8.231 9.89004L9.231 8.82304C10.014 8.04904 10.756 7.31704 12.461 7.27804H12.546C13.608 7.27804 14.666 7.74704 14.786 7.80204C15.7367 8.27173 16.7816 8.51929 17.842 8.52604C18.918 8.52604 20.03 8.26304 21.196 7.73104C21.064 7.6216 20.929 7.51589 20.791 7.41404C19.766 7.85404 18.788 8.07404 17.845 8.07404C16.883 8.07404 15.92 7.84504 14.987 7.39404C14.937 7.37204 13.767 6.82704 12.547 6.82404C12.5143 6.82404 12.4823 6.82471 12.451 6.82604C11.017 6.85904 10.211 7.36204 9.669 7.80204C9.141 7.81504 8.687 7.94004 8.281 8.05204C7.92 8.15204 7.608 8.23804 7.302 8.23704C7.177 8.23704 6.952 8.22704 6.932 8.22504C6.582 8.21504 4.817 7.78804 3.414 7.26304C3.272 7.36304 3.13367 7.46638 2.999 7.57304C4.465 8.16604 6.249 8.62604 6.811 8.66204C6.968 8.67204 7.134 8.68904 7.302 8.68904C7.674 8.68904 8.046 8.58604 8.406 8.48604C8.619 8.42704 8.852 8.36304 9.098 8.31604L8.902 8.51004L7.885 9.59704C7.805 9.67704 7.631 9.89104 7.745 10.154C7.80444 10.275 7.89746 10.3763 8.013 10.446C8.256 10.608 8.69 10.716 9.093 10.717C9.24633 10.717 9.38967 10.7024 9.523 10.673C9.95 10.578 10.397 10.225 10.872 9.85304C11.249 9.55704 11.785 9.18104 12.195 9.07104C12.3158 9.03901 12.4401 9.02221 12.565 9.02104C12.5967 9.02024 12.6285 9.02191 12.66 9.02604C12.93 9.06004 13.193 9.15104 13.663 9.49804C14.498 10.118 18.194 13.313 18.229 13.344C18.231 13.346 18.467 13.547 18.449 13.881C18.442 14.067 18.339 14.233 18.155 14.347C18.0114 14.4422 17.8434 14.4942 17.671 14.497C17.5195 14.4968 17.3711 14.4538 17.243 14.373C17.229 14.363 15.963 13.216 15.497 12.83C15.423 12.77 15.351 12.715 15.277 12.715C15.2586 12.7147 15.2404 12.7186 15.2238 12.7264C15.2071 12.7342 15.1925 12.7457 15.181 12.76C15.108 12.85 15.191 12.972 15.286 13.054L16.766 14.524C16.768 14.524 16.95 14.694 16.97 14.919C16.9813 15.1637 16.8647 15.3657 16.62 15.525C16.4654 15.6325 16.2824 15.692 16.094 15.696C15.9446 15.6955 15.7986 15.6513 15.674 15.569L15.46 15.363C15.112 15.0142 14.7518 14.6776 14.38 14.354C14.308 14.296 14.232 14.242 14.159 14.242C14.1416 14.2418 14.1243 14.245 14.1081 14.2515C14.092 14.258 14.0773 14.2677 14.065 14.28C14.032 14.317 14.009 14.383 14.093 14.492C14.1157 14.5217 14.1408 14.5494 14.168 14.575L15.246 15.773C15.256 15.783 15.468 16.033 15.27 16.284L15.232 16.332C15.2006 16.366 15.1672 16.398 15.132 16.428C14.948 16.578 14.702 16.592 14.605 16.592C14.5557 16.5926 14.5065 16.5885 14.458 16.58C14.3513 16.562 14.2807 16.5324 14.246 16.491L14.233 16.478C14.173 16.418 13.631 15.869 13.179 15.498C13.12 15.448 13.046 15.388 12.969 15.388C12.951 15.388 12.9331 15.3917 12.9166 15.3989C12.9001 15.4062 12.8852 15.4168 12.873 15.43C12.783 15.526 12.917 15.67 12.973 15.723L13.893 16.726C13.8857 16.7485 13.8746 16.7695 13.86 16.788C13.827 16.832 13.716 16.943 13.381 16.984C13.3405 16.9891 13.2998 16.9914 13.259 16.991C12.914 16.991 12.547 16.827 12.357 16.727C12.4427 16.5471 12.4871 16.3503 12.487 16.151C12.4861 15.968 12.4482 15.787 12.3758 15.6189C12.3033 15.4507 12.1977 15.2988 12.0652 15.1722C11.9328 15.0456 11.7761 14.9469 11.6046 14.882C11.4331 14.817 11.2503 14.7871 11.067 14.794C11.091 14.452 11.042 13.804 10.37 13.52C10.1889 13.4397 9.9932 13.3972 9.795 13.395C9.64833 13.395 9.50833 13.42 9.375 13.47C9.2346 13.2012 8.99345 12.9985 8.704 12.906C8.54519 12.8507 8.37825 12.8219 8.21 12.821C7.92933 12.821 7.67367 12.9017 7.443 13.063C7.33382 12.9291 7.19617 12.8211 7.04 12.7467C6.88384 12.6723 6.71305 12.6335 6.54 12.633C6.23327 12.6335 5.93891 12.7537 5.72 12.968C5.433 12.751 4.295 12.038 1.253 11.355C1.02105 11.2968 0.790339 11.2338 0.561 11.166C0.526801 11.3293 0.5011 11.4942 0.484 11.66L1.154 11.817C4.262 12.499 5.29 13.208 5.463 13.342C5.40384 13.4819 5.37324 13.6322 5.373 13.784C5.37379 13.9541 5.41209 14.1219 5.48518 14.2755C5.55827 14.4291 5.66436 14.5648 5.7959 14.6729C5.92745 14.7809 6.08122 14.8587 6.24629 14.9008C6.41136 14.9428 6.58368 14.948 6.751 14.916C6.847 15.383 7.157 15.737 7.63 15.919C7.76229 15.9707 7.90293 15.9978 8.045 15.999C8.135 15.999 8.22367 15.9877 8.311 15.965C8.397 16.185 8.593 16.458 9.033 16.633C9.17795 16.6931 9.33306 16.725 9.49 16.727C9.612 16.727 9.73033 16.706 9.845 16.664C9.94968 16.9136 10.1261 17.1266 10.3519 17.2763C10.5777 17.4259 10.8429 17.5055 11.114 17.505C11.484 17.507 11.84 17.358 12.099 17.095C12.32 17.216 12.787 17.436 13.262 17.436C13.322 17.4367 13.3803 17.4334 13.437 17.426C13.907 17.367 14.126 17.186 14.226 17.044C14.2441 17.0194 14.2601 16.9933 14.274 16.966C14.384 16.998 14.508 17.024 14.647 17.024C14.902 17.024 15.148 16.938 15.397 16.759C15.641 16.585 15.815 16.335 15.841 16.122V16.112C15.9243 16.1294 16.008 16.138 16.092 16.138C16.357 16.138 16.619 16.056 16.865 15.896C17.345 15.586 17.427 15.181 17.419 14.916C17.5867 14.9507 17.7597 14.9514 17.9277 14.9181C18.0957 14.8848 18.2553 14.8181 18.397 14.722C18.5389 14.637 18.6585 14.5193 18.7458 14.3788C18.8331 14.2383 18.8856 14.0789 18.899 13.914C18.9163 13.685 18.8603 13.4563 18.739 13.261C19.543 12.919 21.375 12.258 23.534 11.778C23.5203 11.613 23.498 11.4488 23.467 11.286C21.736 11.664 20.0453 12.2065 18.418 12.906L18.417 12.908ZM23.54 12.145C23.54 16.172 18.374 19.438 12.003 19.438C5.632 19.438 0.465 16.172 0.465 12.145C0.465 8.11804 5.63 4.85204 12.004 4.85204C18.375 4.85204 23.54 8.11704 23.54 12.145ZM24 12.149C24 7.87704 18.626 4.39404 12 4.39404C5.374 4.39404 0.002 7.87704 0.002 12.15L0 12.604C0 17.137 4.695 20.807 11.999 20.807C19.346 20.807 23.999 17.137 23.999 12.603L24 12.149Z" fill="#82BEA2"/>
</svg>