<svg xmlns="http://www.w3.org/2000/svg" width="24" height="25" viewBox="0 0 24 25" fill="none">
  <path d="M14.636 4.51002C15.289 4.07402 15.616 3.85602 15.971 3.89202C16.327 3.92702 16.604 4.20402 17.159 4.75902L19.841 7.44102C20.396 7.99602 20.673 8.27302 20.708 8.62902C20.743 8.98502 20.526 9.31102 20.091 9.96402L18.441 12.437C17.88 13.28 17.599 13.701 17.375 14.151C17.2088 14.4843 17.0662 14.8288 16.948 15.182C16.788 15.659 16.688 16.156 16.49 17.149L16.3 18.104L16.298 18.11C16.2651 18.272 16.1926 18.4234 16.087 18.5505C15.9813 18.6776 15.8458 18.7765 15.6925 18.8385C15.5393 18.9004 15.3731 18.9233 15.2087 18.9053C15.0444 18.8872 14.8872 18.8287 14.751 18.735L14.746 18.731L14.719 18.713C11.2605 16.3163 8.26256 13.3157 5.869 9.85502L5.865 9.84902C5.77128 9.71286 5.71278 9.55559 5.69473 9.39128C5.67668 9.22697 5.69964 9.06074 5.76156 8.90748C5.82348 8.75422 5.92243 8.61869 6.04955 8.51304C6.17667 8.40738 6.328 8.33488 6.49 8.30202L6.496 8.30102L7.451 8.11002C8.444 7.91102 8.941 7.81202 9.418 7.65202C9.77085 7.53382 10.115 7.39114 10.448 7.22502C10.898 7.00102 11.32 6.72002 12.163 6.15802L14.636 4.51002Z" stroke="#82BEA2" stroke-width="2"/>
  <path d="M5 19.6001L9.5 15.1001" stroke="#82BEA2" stroke-width="2" stroke-linecap="round"/>
</svg>