<svg xmlns="http://www.w3.org/2000/svg" width="24" height="25" viewBox="0 0 24 25" fill="none">
  <path d="M2 3.6001V2.8501C1.80109 2.8501 1.61032 2.92912 1.46967 3.06977C1.32902 3.21042 1.25 3.40119 1.25 3.6001H2ZM13 3.6001H13.75C13.75 3.40119 13.671 3.21042 13.5303 3.06977C13.3897 2.92912 13.1989 2.8501 13 2.8501V3.6001ZM13 9.6001V8.8501C12.8011 8.8501 12.6103 8.92912 12.4697 9.06977C12.329 9.21042 12.25 9.40119 12.25 9.6001H13ZM2 4.3501H13V2.8501H2V4.3501ZM12.25 3.6001V19.6001H13.75V3.6001H12.25ZM2.75 17.6001V3.6001H1.25V17.6001H2.75ZM13 10.3501H18V8.8501H13V10.3501ZM21.25 13.6001V17.6001H22.75V13.6001H21.25ZM13.75 19.6001V9.6001H12.25V19.6001H13.75ZM18.884 20.4841C18.7679 20.6002 18.6301 20.6923 18.4784 20.7551C18.3268 20.818 18.1642 20.8503 18 20.8503C17.8358 20.8503 17.6732 20.818 17.5216 20.7551C17.3699 20.6923 17.2321 20.6002 17.116 20.4841L16.056 21.5441C16.5717 22.0598 17.2712 22.3495 18.0005 22.3495C18.7298 22.3495 19.4293 22.0598 19.945 21.5441L18.884 20.4841ZM17.116 18.7161C17.2321 18.6 17.3699 18.5079 17.5216 18.445C17.6732 18.3822 17.8358 18.3499 18 18.3499C18.1642 18.3499 18.3268 18.3822 18.4784 18.445C18.6301 18.5079 18.7679 18.6 18.884 18.7161L19.944 17.6561C19.4283 17.1404 18.7288 16.8507 17.9995 16.8507C17.2702 16.8507 16.5707 17.1404 16.055 17.6561L17.116 18.7161ZM6.884 20.4841C6.76792 20.6002 6.63011 20.6923 6.47843 20.7551C6.32675 20.818 6.16418 20.8503 6 20.8503C5.83582 20.8503 5.67325 20.818 5.52157 20.7551C5.36989 20.6923 5.23208 20.6002 5.116 20.4841L4.056 21.5441C4.57172 22.0598 5.27118 22.3495 6.0005 22.3495C6.72982 22.3495 7.42928 22.0598 7.945 21.5441L6.884 20.4841ZM5.116 18.7161C5.23208 18.6 5.36989 18.5079 5.52157 18.445C5.67325 18.3822 5.83582 18.3499 6 18.3499C6.16418 18.3499 6.32675 18.3822 6.47843 18.445C6.63011 18.5079 6.76792 18.6 6.884 18.7161L7.944 17.6561C7.42828 17.1404 6.72882 16.8507 5.9995 16.8507C5.27018 16.8507 4.57072 17.1404 4.055 17.6561L5.116 18.7161ZM18.884 18.7161C19.128 18.9601 19.25 19.2791 19.25 19.6001H20.75C20.75 18.8971 20.481 18.1921 19.945 17.6551L18.884 18.7161ZM19.25 19.6001C19.25 19.9211 19.128 20.2401 18.884 20.4841L19.945 21.5441C20.2008 21.2892 20.4028 20.9862 20.5411 20.6526C20.6794 20.3189 20.7504 19.9613 20.75 19.6001H19.25ZM16 18.8501H13V20.3501H16V18.8501ZM17.116 20.4841C16.9995 20.3683 16.9071 20.2306 16.8443 20.0788C16.7815 19.9271 16.7494 19.7643 16.75 19.6001H15.25C15.25 20.3031 15.519 21.0081 16.055 21.5451L17.116 20.4841ZM16.75 19.6001C16.75 19.2791 16.872 18.9601 17.116 18.7161L16.055 17.6561C15.7992 17.911 15.5972 18.214 15.4589 18.5476C15.3206 18.8813 15.2496 19.2389 15.25 19.6001H16.75ZM5.116 20.4841C4.99949 20.3683 4.90714 20.2306 4.84431 20.0788C4.78148 19.9271 4.74942 19.7643 4.75 19.6001H3.25C3.25 20.3031 3.519 21.0081 4.055 21.5451L5.116 20.4841ZM4.75 19.6001C4.75 19.2791 4.872 18.9601 5.116 18.7161L4.056 17.6561C3.80016 17.911 3.59725 18.214 3.45892 18.5476C3.3206 18.8813 3.2496 19.2389 3.25 19.6001H4.75ZM13 18.8501H8V20.3501H13V18.8501ZM6.884 18.7161C7.128 18.9601 7.25 19.2791 7.25 19.6001H8.75C8.75 18.8971 8.481 18.1921 7.945 17.6551L6.884 18.7161ZM7.25 19.6001C7.25 19.9211 7.128 20.2401 6.884 20.4841L7.944 21.5441C8.19984 21.2892 8.40275 20.9862 8.54108 20.6526C8.6794 20.3189 8.7504 19.9613 8.75 19.6001H7.25ZM21.25 17.6001C21.25 18.2901 20.69 18.8501 20 18.8501V20.3501C20.7293 20.3501 21.4288 20.0604 21.9445 19.5446C22.4603 19.0289 22.75 18.3294 22.75 17.6001H21.25ZM18 10.3501C18.862 10.3501 19.6886 10.6925 20.2981 11.302C20.9076 11.9115 21.25 12.7381 21.25 13.6001H22.75C22.75 12.3403 22.2496 11.1321 21.3588 10.2413C20.468 9.35054 19.2598 8.8501 18 8.8501V10.3501ZM1.25 17.6001C1.25 18.3294 1.53973 19.0289 2.05546 19.5446C2.57118 20.0604 3.27065 20.3501 4 20.3501V18.8501C3.31 18.8501 2.75 18.2901 2.75 17.6001H1.25Z" fill="#82BEA2"/>
</svg>